<?xml version="1.0" encoding="UTF-8" standalone="no"?>
<!-- Created with Inkscape (http://www.inkscape.org/) -->

<svg
   width="511.88553"
   height="511.81812"
   viewBox="0 0 511.88553 511.81812"
   version="1.1"
   id="svg1"
   xml:space="preserve"
   xmlns="http://www.w3.org/2000/svg"
   xmlns:svg="http://www.w3.org/2000/svg"><defs
     id="defs1" /><g
     id="layer1"
     transform="translate(-265.3031,-1246.3977)"><path
       style="fill:#ffffff"
       d="m 320.68869,1756.654 c -7.63256,-1.5983 -18.98659,-6.5457 -25.83403,-11.2569 -14.60546,-10.0488 -25.89352,-28.2308 -28.62934,-46.1141 -0.84163,-5.5015 -1.06538,-59.1949 -0.83969,-201.5 0.29041,-183.1182 0.40824,-194.3366 2.10059,-200 7.11603,-23.8138 25.35877,-42.0073 49.37276,-49.2397 5.45712,-1.6435 18.22872,-1.7754 199.82971,-2.0634 142.3051,-0.2257 195.99851,0 201.5,0.8397 28.50799,4.3612 51.50468,26.4597 57.41368,55.1712 1.41617,6.8811 1.58632,28.3111 1.58632,199.7922 0,171.481 -0.17015,192.911 -1.58632,199.7921 -5.71898,27.7882 -26.8333,48.9026 -54.62152,54.6215 -6.88999,1.418 -28.16431,1.5777 -200.5,1.5048 -165.30331,-0.07 -193.79024,-0.2905 -199.79216,-1.5474 z m 114.18863,-96.3228 c 2.14261,-1.3064 3.53499,-3.1914 4.24443,-5.7462 0.70723,-2.5468 1.05763,-35.5885 1.06136,-100.0842 0.006,-104.8732 0.20961,-101.0724 -5.61692,-104.8901 -2.51872,-1.6503 -5.27904,-1.8277 -28.43213,-1.8277 -27.94809,0 -29.76481,0.3163 -32.53068,5.6649 -1.19175,2.3046 -1.41469,18.4023 -1.41469,102.1505 v 99.4148 l 2.13812,2.7182 c 1.17596,1.495 3.08846,3.1022 4.25,3.5715 1.16153,0.4693 13.58688,0.8801 27.61188,0.9129 23.55673,0.055 25.74299,-0.088 28.68863,-1.8846 z m 98.64207,-0.094 c 1.43022,-1.125 3.0634,-3.7125 3.62928,-5.75 0.64694,-2.3294 1.03094,-23.9429 1.03444,-58.2246 0.005,-51.6897 0.11087,-54.9001 2.03365,-61.8387 3.90536,-14.0929 9.68898,-22.4517 19.16838,-27.7032 4.96635,-2.7512 6.00292,-2.938 16.30355,-2.938 9.75016,0 11.55411,0.2829 15.87677,2.4905 8.83522,4.5122 14.61415,13.2626 17.82833,26.9956 0.63875,2.7291 1.30129,28.1278 1.67568,64.2374 l 0.61922,59.7236 2.27627,2.2764 c 2.24704,2.2472 2.64265,2.2802 30.80582,2.5706 l 28.52956,0.2942 3.51978,-3.5198 3.51979,-3.5198 -0.42878,-65.7744 c -0.44928,-68.9201 -0.61243,-71.7 -5.2904,-90.1411 -6.55417,-25.8373 -22.18135,-43.5062 -44.83249,-50.69 -17.35694,-5.5048 -41.80169,-5.374 -59.01699,0.3157 -10.36328,3.4251 -21.3696,10.7919 -27.39718,18.3377 l -4.68538,5.8654 -0.53161,-9.231 c -0.55244,-9.593 -1.68458,-12.9736 -4.92557,-14.7081 -1.17054,-0.6265 -12.62502,-1.0229 -29.554,-1.0229 h -27.64267 l -2.92307,2.923 -2.92308,2.9231 0.0354,100.3269 c 0.0287,81.3557 0.28591,100.7789 1.36007,102.7169 2.65035,4.7818 4.29438,5.0368 32.71963,5.0746 25.32698,0.034 26.741,-0.063 29.21556,-2.01 z M 418.8496,1427.4602 c 13.84747,-4.3226 24.11907,-14.6704 28.81716,-29.0308 2.79817,-8.553 1.84331,-21.7349 -2.1999,-30.3698 -12.94858,-27.6537 -48.17455,-34.4115 -69.72112,-13.3753 -23.60231,23.0432 -14.56378,61.9096 16.92989,72.7999 6.73511,2.3289 18.67148,2.318 26.17397,-0.024 z"
       id="path25" /></g></svg>
