<?xml version="1.0" encoding="UTF-8" standalone="no"?>
<!-- Created with Inkscape (http://www.inkscape.org/) -->

<svg
   width="144.80595"
   height="145.09375"
   viewBox="0 0 144.80595 145.09375"
   version="1.1"
   id="svg1"
   xml:space="preserve"
   xmlns="http://www.w3.org/2000/svg"
   xmlns:svg="http://www.w3.org/2000/svg"><defs
     id="defs1" /><g
     id="layer1"
     transform="translate(221.3128,-2136.4531)"><path
       style="display:inline;fill:#ffffff;stroke-width:1.07235"
       d="m -175.18189,2281.4039 c -3.0879,-0.2441 -6.91853,-0.3755 -8.51233,-0.5633 -20.10936,-2.2999 -33.03829,-14.2088 -36.37026,-33.4906 -0.87679,-5.0786 -1.04576,-9.6615 -1.19596,-32.381 -0.23844,-35.9106 0.25158,-43.582 3.32578,-52.3104 1.88969,-5.364 4.55985,-9.639 8.5786,-13.7282 6.3934,-6.5054 14.17051,-10.1572 24.57009,-11.5371 5.78284,-0.7698 19.23877,-1.0514 41.888,-0.9012 26.93421,0.2441 31.24116,0.4881 38.44507,2.6604 6.42401,1.9432 11.095,4.6712 15.77782,9.226 6.78805,6.6068 10.37217,14.4341 11.79474,25.7647 0.28726,2.298 0.37362,10.1591 0.37362,34.8968 0,28.7236 -0.0376,32.2795 -0.49566,35.5013 -1.52639,11.1072 -5.1659,18.8744 -11.88936,25.378 -6.95852,6.7326 -15.40551,10.1384 -27.75955,11.2029 -4.35746,0.3943 -50.6384,0.582 -58.5291,0.2629 z m 52.4115,-13.058 c 7.34603,-0.3004 11.10401,-0.7885 14.61528,-1.8793 4.6019,-1.4081 7.89633,-3.4358 11.0965,-6.8491 4.48925,-4.7857 6.53421,-10.1234 7.36631,-19.2217 0.4675,-5.103 0.68904,-44.8549 0.31167,-55.0422 -0.35673,-9.4813 -0.80357,-13.1743 -2.07331,-17.1602 -1.47946,-4.6336 -3.27715,-7.5756 -6.51694,-10.6772 -5.03072,-4.8176 -10.94574,-6.8641 -21.58169,-7.4649 -14.51859,-0.8073 -55.96595,-0.5632 -63.24383,0.413 -13.78487,1.8212 -21.74766,9.0533 -24.20473,22.006 -0.93123,4.9115 -1.12649,11.2781 -1.13024,36.5922 0,30.4284 0.2497,34.9569 2.30292,41.2821 1.45693,4.4947 3.1966,7.2227 6.75575,10.5909 1.99014,1.8775 3.02895,2.6078 5.35572,3.7475 4.8394,2.3637 9.5057,3.2968 18.29215,3.6648 7.64643,0.3004 45.30596,0.3192 52.65857,0 z m -29.06478,-22.1843 c -6.58866,-0.4506 -13.54681,-3.066 -19.24723,-7.249 -2.06692,-1.5208 -5.88441,-5.3489 -7.5443,-7.5738 -1.79487,-2.405 -3.51747,-5.5085 -4.71211,-8.4956 -1.87748,-4.6937 -2.5776,-8.4956 -2.56821,-13.9234 0.0376,-10.3186 3.8894,-19.3981 11.35202,-26.6227 5.57538,-5.3959 12.11767,-8.7097 19.78832,-10.0164 4.03453,-0.6759 11.1395,-0.4318 14.84828,0.5257 7.47089,1.9432 13.03068,5.21 18.26549,10.7111 6.66582,7.003 10.105,15.6882 10.105,25.5225 0,10.4594 -3.825,19.4958 -11.32537,26.7579 -4.24067,4.1041 -8.55476,6.742 -14.0173,8.5688 -4.86926,1.6522 -9.3311,2.1572 -14.94459,1.7648 z m 8.04633,-13.4184 c 4.62556,-0.9575 8.59438,-3.1091 11.97348,-6.4999 4.8884,-4.9039 7.20184,-10.39 7.21292,-17.0982 0,-5.0485 -1.27857,-9.3254 -4.06288,-13.5103 -4.53319,-6.8153 -11.86477,-10.7055 -20.1379,-10.6904 -6.44353,0 -11.90025,2.2267 -16.72595,6.772 -7.28671,6.8735 -9.43268,18.2511 -5.1798,27.4526 3.14291,6.804 9.56973,11.9971 16.74623,13.5291 2.61346,0.5633 7.57922,0.6008 10.1739,0 z m 30.9663,-54.2461 c -2.12249,-0.7322 -4.69108,-3.3889 -5.37242,-5.5799 -1.69912,-5.4635 1.96873,-10.8106 7.67666,-11.1842 2.9193,-0.2441 4.63157,0.4506 6.65587,2.4708 2.02412,2.007 2.65908,3.7343 2.46871,6.6557 -0.21404,3.2743 -1.83994,5.7807 -4.64997,7.1532 -1.99858,0.9763 -4.74891,1.164 -6.77885,0.4881 z"
       id="path383-5" /></g></svg>
