<?xml version="1.0" encoding="UTF-8" standalone="no"?>
<!-- Created with Inkscape (http://www.inkscape.org/) -->

<svg
   width="144.80595"
   height="145.09357"
   viewBox="0 0 144.80595 145.09357"
   version="1.1"
   id="svg1"
   xml:space="preserve"
   xmlns="http://www.w3.org/2000/svg"
   xmlns:svg="http://www.w3.org/2000/svg"><defs
     id="defs1" /><g
     id="layer1"
     transform="translate(-207.59703,-17.453209)"><path
       style="display:inline;fill:#000000;stroke-width:1.07235"
       d="m 253.7278,162.40385 c -3.0879,-0.24408 -6.91853,-0.3755 -8.51233,-0.56325 -20.10936,-2.29992 -33.03829,-14.20881 -36.37026,-33.49058 -0.87679,-5.07859 -1.04576,-9.66153 -1.19596,-32.380981 -0.23844,-35.9106 0.25158,-43.582003 3.32578,-52.310431 1.88969,-5.363975 4.55985,-9.639008 8.5786,-13.728171 6.3934,-6.505485 14.17051,-10.157194 24.57009,-11.537145 5.78284,-0.769769 19.23877,-1.051392 41.888,-0.901193 26.93421,0.244073 31.24116,0.488146 38.44507,2.660396 6.42401,1.943197 11.095,4.671183 15.77782,9.225962 6.78805,6.60687 10.37217,14.434105 11.79474,25.764727 0.28726,2.298041 0.37362,10.159071 0.37362,34.896814 0,28.723582 -0.0376,32.279542 -0.49566,35.501312 -1.52639,11.1072 -5.1659,18.87435 -11.88936,25.37796 -6.95852,6.73266 -15.40551,10.13842 -27.75955,11.20295 -4.35746,0.39428 -50.6384,0.58202 -58.5291,0.26285 z m 52.4115,-13.05791 c 7.34603,-0.3004 11.10401,-0.78855 14.61528,-1.87936 4.6019,-1.40812 7.89633,-3.4358 11.0965,-6.84907 4.48925,-4.78571 6.53421,-10.1234 7.36631,-19.22169 0.4675,-5.10301 0.68904,-44.85494 0.31167,-55.042173 -0.35673,-9.4813 -0.80357,-13.174313 -2.07331,-17.160213 -1.47946,-4.633633 -3.27715,-7.575652 -6.51694,-10.677258 -5.03072,-4.817626 -10.94574,-6.864085 -21.58169,-7.46488 -14.51859,-0.807319 -55.96595,-0.563246 -63.24383,0.413047 -13.78487,1.82116 -21.74766,9.053232 -24.20473,22.006002 -0.93123,4.9115 -1.12649,11.278052 -1.13024,36.592182 0,30.428343 0.2497,34.956833 2.30292,41.282083 1.45693,4.4947 3.1966,7.22269 6.75575,10.59089 1.99014,1.87749 3.02895,2.60783 5.35572,3.74746 4.8394,2.36376 9.5057,3.29687 18.29215,3.66486 7.64643,0.30039 45.30596,0.31917 52.65857,0 z m -29.06478,-22.18436 c -6.58866,-0.4506 -13.54681,-3.06594 -19.24723,-7.24897 -2.06692,-1.52077 -5.88441,-5.34896 -7.5443,-7.57378 -1.79487,-2.40506 -3.51747,-5.50854 -4.71211,-8.49562 -1.87748,-4.693711 -2.5776,-8.495619 -2.56821,-13.923371 0.0376,-10.318658 3.8894,-19.398176 11.35202,-26.622738 5.57538,-5.395892 12.11767,-8.709653 19.78832,-10.016382 4.03453,-0.675895 11.1395,-0.431822 14.84828,0.525695 7.47089,1.943197 13.03068,5.210021 18.26549,10.711052 6.66582,7.003019 10.105,15.688265 10.105,25.522532 0,10.459412 -3.825,19.495752 -11.32537,26.757862 -4.24067,4.10418 -8.55476,6.74205 -14.0173,8.56884 -4.86926,1.65219 -9.3311,2.15723 -14.94459,1.76484 z m 8.04633,-13.41839 c 4.62556,-0.95752 8.59438,-3.10912 11.97348,-6.49985 4.8884,-4.90399 7.20184,-10.390006 7.21292,-17.098203 0,-5.048557 -1.27857,-9.325468 -4.06288,-13.510382 -4.53319,-6.815271 -11.86477,-10.70542 -20.1379,-10.6904 -6.44353,0 -11.90025,2.226697 -16.72595,6.772088 -7.28671,6.873473 -9.43268,18.251032 -5.1798,27.452527 3.14291,6.80401 9.56973,11.99713 16.74623,13.52916 2.61346,0.56325 7.57922,0.6008 10.1739,0 z m 30.9663,-54.246119 c -2.12249,-0.732219 -4.69108,-3.38886 -5.37242,-5.579885 -1.69912,-5.463481 1.96873,-10.810559 7.67666,-11.184178 2.9193,-0.244073 4.63157,0.450596 6.65587,2.47077 2.02412,2.007031 2.65908,3.734318 2.46871,6.655684 -0.21404,3.274334 -1.83994,5.780777 -4.64997,7.153218 -1.99858,0.976292 -4.74891,1.164041 -6.77885,0.488146 z"
       id="path383-5" /></g></svg>
